<?xml version="1.0" encoding="UTF-8" standalone="no"?>
<!-- Creator: CorelDRAW -->

<svg
   xmlns:dc="http://purl.org/dc/elements/1.1/"
   xmlns:cc="http://creativecommons.org/ns#"
   xmlns:rdf="http://www.w3.org/1999/02/22-rdf-syntax-ns#"
   xmlns:svg="http://www.w3.org/2000/svg"
   xmlns="http://www.w3.org/2000/svg"
   xmlns:xlink="http://www.w3.org/1999/xlink"
   xmlns:sodipodi="http://sodipodi.sourceforge.net/DTD/sodipodi-0.dtd"
   xmlns:inkscape="http://www.inkscape.org/namespaces/inkscape"
   xml:space="preserve"
   width="48px"
   height="48px"
   style="shape-rendering:geometricPrecision; text-rendering:geometricPrecision; image-rendering:optimizeQuality; fill-rule:evenodd; clip-rule:evenodd"
   viewBox="0 0 48 48"
   id="svg3081"
   version="1.1"
   inkscape:version="0.48.2 r9819"
   sodipodi:docname="draw_icon_48x48.svg"><metadata
   id="metadata3122"><rdf:RDF><cc:Work
       rdf:about=""><dc:format>image/svg+xml</dc:format><dc:type
         rdf:resource="http://purl.org/dc/dcmitype/StillImage" /></cc:Work></rdf:RDF></metadata><sodipodi:namedview
   pagecolor="#ffffff"
   bordercolor="#666666"
   borderopacity="1"
   objecttolerance="10"
   gridtolerance="10"
   guidetolerance="10"
   inkscape:pageopacity="0"
   inkscape:pageshadow="2"
   inkscape:window-width="1400"
   inkscape:window-height="966"
   id="namedview3120"
   showgrid="false"
   inkscape:zoom="11.009605"
   inkscape:cx="20.001977"
   inkscape:cy="28.041987"
   inkscape:window-x="-8"
   inkscape:window-y="-8"
   inkscape:window-maximized="1"
   inkscape:current-layer="svg3081" />
 <defs
   id="defs3083"><linearGradient
   inkscape:collect="always"
   id="linearGradient4143"><stop
     style="stop-color:#000000;stop-opacity:1;"
     offset="0"
     id="stop4145" /><stop
     style="stop-color:#000000;stop-opacity:0;"
     offset="1"
     id="stop4147" /></linearGradient><linearGradient
   id="linearGradient4135"><stop
     id="stop4137"
     offset="0"
     style="stop-color:#000000;stop-opacity:1;" /><stop
     id="stop4139"
     offset="1"
     style="stop-color:#000000;stop-opacity:0;" /></linearGradient><linearGradient
   id="linearGradient4119"><stop
     style="stop-color:#000000;stop-opacity:1;"
     offset="0"
     id="stop4121" /><stop
     style="stop-color:#000000;stop-opacity:0;"
     offset="1"
     id="stop4123" /></linearGradient><linearGradient
   id="linearGradient4103"><stop
     id="stop4105"
     offset="0"
     style="stop-color:#000000;stop-opacity:1;" /><stop
     id="stop4107"
     offset="1"
     style="stop-color:#000000;stop-opacity:0;" /></linearGradient><linearGradient
   id="linearGradient4083"><stop
     style="stop-color:#000000;stop-opacity:1;"
     offset="0"
     id="stop4085" /><stop
     style="stop-color:#000000;stop-opacity:0;"
     offset="1"
     id="stop4087" /></linearGradient><linearGradient
   id="linearGradient3956"><stop
     style="stop-color:#ffffff;stop-opacity:1;"
     offset="0"
     id="stop3958" /><stop
     style="stop-color:#ffffff;stop-opacity:0;"
     offset="1"
     id="stop3960" /></linearGradient>
  <style
   type="text/css"
   id="style3085">
   
    .fil5 {fill:none}
    .fil10 {fill:#00001C}
    .fil6 {fill:#012E1A}
    .fil7 {fill:#018651}
    .fil11 {fill:#30155C}
    .fil8 {fill:#438F85}
    .fil12 {fill:#512D73}
    .fil9 {fill:#5BD3D4}
    .fil3 {fill:#87122F}
    .fil2 {fill:#A31543}
    .fil13 {fill:#B25FD1}
    .fil14 {fill:#BC4C1E}
    .fil4 {fill:#F4458A}
    .fil16 {fill:#F6CD4D}
    .fil0 {fill:#F7D9CE}
    .fil15 {fill:#FCA555}
    .fil1 {fill:#FF6A73}
   
  </style>
 
  
  
 
   
   
   
   
   
   
   
   
   
   
   
   
   
   
   
   
   
   
   
   
   
   
   
   
  <radialGradient
   inkscape:collect="always"
   xlink:href="#linearGradient3956"
   id="radialGradient3962"
   cx="18.951019"
   cy="32.991032"
   fx="18.951019"
   fy="32.991032"
   r="0.40722999"
   gradientTransform="matrix(0.99361866,-0.11942568,2.4599993,18.510486,-77.250208,-579.74406)"
   gradientUnits="userSpaceOnUse" /><radialGradient
   inkscape:collect="always"
   xlink:href="#linearGradient3956"
   id="radialGradient3966"
   gradientUnits="userSpaceOnUse"
   gradientTransform="matrix(0.65693702,-0.20457821,3.4397011,18.204324,-110.93994,-570.22)"
   cx="18.951019"
   cy="32.991032"
   fx="18.951019"
   fy="32.991032"
   r="0.40722999" /><filter
   inkscape:collect="always"
   id="filter3992"><feGaussianBlur
     inkscape:collect="always"
     stdDeviation="0.030758792"
     id="feGaussianBlur3994" /></filter><filter
   inkscape:collect="always"
   id="filter4004"><feGaussianBlur
     inkscape:collect="always"
     stdDeviation="0.018050219"
     id="feGaussianBlur4006" /></filter><radialGradient
   inkscape:collect="always"
   xlink:href="#linearGradient3956"
   id="radialGradient4010"
   gradientUnits="userSpaceOnUse"
   gradientTransform="matrix(0.99361866,-0.11942568,2.4599993,18.510486,-71.260709,-584.41108)"
   cx="18.951019"
   cy="32.991032"
   fx="18.951019"
   fy="32.991032"
   r="0.40722999" /><radialGradient
   inkscape:collect="always"
   xlink:href="#linearGradient3956"
   id="radialGradient4014"
   gradientUnits="userSpaceOnUse"
   gradientTransform="matrix(0.99361866,-0.11942568,2.4599993,18.510486,-71.260709,-584.41108)"
   cx="18.951019"
   cy="32.991032"
   fx="18.951019"
   fy="32.991032"
   r="0.40722999" /><filter
   inkscape:collect="always"
   id="filter4032"
   x="-0.29700028"
   width="1.5940006"
   y="-0.022446857"
   height="1.0448937"><feGaussianBlur
     inkscape:collect="always"
     stdDeviation="0.11572961"
     id="feGaussianBlur4034" /></filter><radialGradient
   inkscape:collect="always"
   xlink:href="#linearGradient3956"
   id="radialGradient4038"
   gradientUnits="userSpaceOnUse"
   gradientTransform="matrix(0.65693702,-0.20457821,3.4397011,18.204324,-114.48803,-569.33927)"
   cx="18.951019"
   cy="32.991032"
   fx="18.951019"
   fy="32.991032"
   r="0.40722999" /><radialGradient
   inkscape:collect="always"
   xlink:href="#linearGradient3956"
   id="radialGradient4042"
   gradientUnits="userSpaceOnUse"
   gradientTransform="matrix(0.99361866,-0.11942568,2.4599993,18.510486,-80.66418,-579.45067)"
   cx="18.951019"
   cy="32.991032"
   fx="18.951019"
   fy="32.991032"
   r="0.40722999" /><radialGradient
   inkscape:collect="always"
   xlink:href="#linearGradient3956"
   id="radialGradient4046"
   gradientUnits="userSpaceOnUse"
   gradientTransform="matrix(0.99361866,-0.11942568,2.4599993,18.510486,-80.66418,-579.45067)"
   cx="18.951019"
   cy="32.991032"
   fx="18.951019"
   fy="32.991032"
   r="0.40722999" /><radialGradient
   inkscape:collect="always"
   xlink:href="#linearGradient3956"
   id="radialGradient4050"
   gradientUnits="userSpaceOnUse"
   gradientTransform="matrix(0.99361866,-0.11942568,2.4599993,18.510486,-71.260709,-584.41108)"
   cx="18.951019"
   cy="32.991032"
   fx="18.951019"
   fy="32.991032"
   r="0.40722999" /><radialGradient
   inkscape:collect="always"
   xlink:href="#linearGradient3956"
   id="radialGradient4054"
   gradientUnits="userSpaceOnUse"
   gradientTransform="matrix(0.99361866,-0.11942568,2.4599993,18.510486,-81.442963,-598.19218)"
   cx="18.951019"
   cy="32.991032"
   fx="18.951019"
   fy="32.991032"
   r="0.40722999" /><radialGradient
   inkscape:collect="always"
   xlink:href="#linearGradient3956"
   id="radialGradient4058"
   gradientUnits="userSpaceOnUse"
   gradientTransform="matrix(0.99361866,-0.11942568,2.4599993,18.510486,-81.442963,-598.19218)"
   cx="18.951019"
   cy="32.991032"
   fx="18.951019"
   fy="32.991032"
   r="0.40722999" /><radialGradient
   inkscape:collect="always"
   xlink:href="#linearGradient3956"
   id="radialGradient4062"
   gradientUnits="userSpaceOnUse"
   gradientTransform="matrix(0.99361866,-0.11942568,2.4599993,18.510486,-81.442963,-598.19218)"
   cx="18.951019"
   cy="32.991032"
   fx="18.951019"
   fy="32.991032"
   r="0.40722999" /><radialGradient
   inkscape:collect="always"
   xlink:href="#linearGradient3956"
   id="radialGradient4066"
   gradientUnits="userSpaceOnUse"
   gradientTransform="matrix(0.99361866,-0.11942568,2.4599993,18.510486,-81.442963,-598.19218)"
   cx="18.951019"
   cy="32.991032"
   fx="18.951019"
   fy="32.991032"
   r="0.40722999" />
    
    
    
    
    
   <linearGradient
   inkscape:collect="always"
   xlink:href="#linearGradient4083"
   id="linearGradient4091"
   x1="3.2336414"
   y1="18.837097"
   x2="12.576234"
   y2="16.630335"
   gradientUnits="userSpaceOnUse" /><linearGradient
   inkscape:collect="always"
   xlink:href="#linearGradient4103"
   id="linearGradient4101"
   x1="12.875484"
   y1="19.944794"
   x2="20.533787"
   y2="18.434906"
   gradientUnits="userSpaceOnUse" /><linearGradient
   inkscape:collect="always"
   xlink:href="#linearGradient4119"
   id="linearGradient4117"
   x1="19.52939"
   y1="19.718031"
   x2="26.432652"
   y2="18.521439"
   gradientUnits="userSpaceOnUse" /><linearGradient
   inkscape:collect="always"
   xlink:href="#linearGradient4135"
   id="linearGradient4133"
   x1="27.49049"
   y1="14.761312"
   x2="34.435722"
   y2="15.25579"
   gradientUnits="userSpaceOnUse" /><radialGradient
   inkscape:collect="always"
   xlink:href="#linearGradient4143"
   id="radialGradient4149"
   cx="25.593843"
   cy="40.477909"
   fx="25.593843"
   fy="40.477909"
   r="15.730849"
   gradientTransform="matrix(1,0,0,0.35912699,0,25.941199)"
   gradientUnits="userSpaceOnUse" /><radialGradient
   inkscape:collect="always"
   xlink:href="#linearGradient4143"
   id="radialGradient4198"
   gradientUnits="userSpaceOnUse"
   gradientTransform="matrix(1,0,0,0.35912699,0,25.941199)"
   cx="25.593843"
   cy="40.477909"
   fx="25.593843"
   fy="40.477909"
   r="15.730849" /><linearGradient
   inkscape:collect="always"
   xlink:href="#linearGradient4083"
   id="linearGradient4200"
   gradientUnits="userSpaceOnUse"
   x1="3.2336414"
   y1="18.837097"
   x2="12.576234"
   y2="16.630335" /><radialGradient
   inkscape:collect="always"
   xlink:href="#linearGradient3956"
   id="radialGradient4202"
   gradientUnits="userSpaceOnUse"
   gradientTransform="matrix(0.99361866,-0.11942568,2.4599993,18.510486,-77.250208,-579.74406)"
   cx="18.951019"
   cy="32.991032"
   fx="18.951019"
   fy="32.991032"
   r="0.40722999" /><radialGradient
   inkscape:collect="always"
   xlink:href="#linearGradient3956"
   id="radialGradient4204"
   gradientUnits="userSpaceOnUse"
   gradientTransform="matrix(0.65693702,-0.20457821,3.4397011,18.204324,-110.93994,-570.22)"
   cx="18.951019"
   cy="32.991032"
   fx="18.951019"
   fy="32.991032"
   r="0.40722999" /><radialGradient
   inkscape:collect="always"
   xlink:href="#linearGradient3956"
   id="radialGradient4206"
   gradientUnits="userSpaceOnUse"
   gradientTransform="matrix(0.99361866,-0.11942568,2.4599993,18.510486,-71.260709,-584.41108)"
   cx="18.951019"
   cy="32.991032"
   fx="18.951019"
   fy="32.991032"
   r="0.40722999" /><radialGradient
   inkscape:collect="always"
   xlink:href="#linearGradient3956"
   id="radialGradient4208"
   gradientUnits="userSpaceOnUse"
   gradientTransform="matrix(0.99361866,-0.11942568,2.4599993,18.510486,-71.260709,-584.41108)"
   cx="18.951019"
   cy="32.991032"
   fx="18.951019"
   fy="32.991032"
   r="0.40722999" /><radialGradient
   inkscape:collect="always"
   xlink:href="#linearGradient3956"
   id="radialGradient4210"
   gradientUnits="userSpaceOnUse"
   gradientTransform="matrix(0.65693702,-0.20457821,3.4397011,18.204324,-114.48803,-569.33927)"
   cx="18.951019"
   cy="32.991032"
   fx="18.951019"
   fy="32.991032"
   r="0.40722999" /><radialGradient
   inkscape:collect="always"
   xlink:href="#linearGradient3956"
   id="radialGradient4212"
   gradientUnits="userSpaceOnUse"
   gradientTransform="matrix(0.99361866,-0.11942568,2.4599993,18.510486,-80.66418,-579.45067)"
   cx="18.951019"
   cy="32.991032"
   fx="18.951019"
   fy="32.991032"
   r="0.40722999" /><radialGradient
   inkscape:collect="always"
   xlink:href="#linearGradient3956"
   id="radialGradient4214"
   gradientUnits="userSpaceOnUse"
   gradientTransform="matrix(0.99361866,-0.11942568,2.4599993,18.510486,-80.66418,-579.45067)"
   cx="18.951019"
   cy="32.991032"
   fx="18.951019"
   fy="32.991032"
   r="0.40722999" /><radialGradient
   inkscape:collect="always"
   xlink:href="#linearGradient3956"
   id="radialGradient4216"
   gradientUnits="userSpaceOnUse"
   gradientTransform="matrix(0.99361866,-0.11942568,2.4599993,18.510486,-71.260709,-584.41108)"
   cx="18.951019"
   cy="32.991032"
   fx="18.951019"
   fy="32.991032"
   r="0.40722999" /><radialGradient
   inkscape:collect="always"
   xlink:href="#linearGradient3956"
   id="radialGradient4218"
   gradientUnits="userSpaceOnUse"
   gradientTransform="matrix(0.99361866,-0.11942568,2.4599993,18.510486,-81.442963,-598.19218)"
   cx="18.951019"
   cy="32.991032"
   fx="18.951019"
   fy="32.991032"
   r="0.40722999" /><linearGradient
   inkscape:collect="always"
   xlink:href="#linearGradient4103"
   id="linearGradient4220"
   gradientUnits="userSpaceOnUse"
   x1="12.875484"
   y1="19.944794"
   x2="20.533787"
   y2="18.434906" /><radialGradient
   inkscape:collect="always"
   xlink:href="#linearGradient3956"
   id="radialGradient4222"
   gradientUnits="userSpaceOnUse"
   gradientTransform="matrix(0.99361866,-0.11942568,2.4599993,18.510486,-81.442963,-598.19218)"
   cx="18.951019"
   cy="32.991032"
   fx="18.951019"
   fy="32.991032"
   r="0.40722999" /><linearGradient
   inkscape:collect="always"
   xlink:href="#linearGradient4119"
   id="linearGradient4224"
   gradientUnits="userSpaceOnUse"
   x1="19.52939"
   y1="19.718031"
   x2="26.432652"
   y2="18.521439" /><radialGradient
   inkscape:collect="always"
   xlink:href="#linearGradient3956"
   id="radialGradient4226"
   gradientUnits="userSpaceOnUse"
   gradientTransform="matrix(0.99361866,-0.11942568,2.4599993,18.510486,-81.442963,-598.19218)"
   cx="18.951019"
   cy="32.991032"
   fx="18.951019"
   fy="32.991032"
   r="0.40722999" /><linearGradient
   inkscape:collect="always"
   xlink:href="#linearGradient4135"
   id="linearGradient4228"
   gradientUnits="userSpaceOnUse"
   x1="27.49049"
   y1="14.761312"
   x2="34.435722"
   y2="15.25579" /><radialGradient
   inkscape:collect="always"
   xlink:href="#linearGradient3956"
   id="radialGradient4230"
   gradientUnits="userSpaceOnUse"
   gradientTransform="matrix(0.99361866,-0.11942568,2.4599993,18.510486,-81.442963,-598.19218)"
   cx="18.951019"
   cy="32.991032"
   fx="18.951019"
   fy="32.991032"
   r="0.40722999" /></defs>
 
<g
   id="g4151"
   transform="translate(2.9380036e-8,-1.1040452)"><path
     transform="matrix(1.218254,0,0,1.0662983,-7.1798022,-2.3090742)"
     d="m 41.324693,40.477909 c 0,3.120062 -7.042941,5.649373 -15.73085,5.649373 -8.687908,0 -15.7308488,-2.529311 -15.7308488,-5.649373 0,-3.120062 7.0429408,-5.649372 15.7308488,-5.649372 8.687909,0 15.73085,2.52931 15.73085,5.649372 z"
     sodipodi:ry="5.6493726"
     sodipodi:rx="15.730849"
     sodipodi:cy="40.477909"
     sodipodi:cx="25.593843"
     id="path4141"
     style="opacity:0.51769912;fill:url(#radialGradient4198);fill-opacity:1;fill-rule:evenodd;stroke:none"
     sodipodi:type="arc" /><path
     style="fill:#f7d9ce"
     inkscape:connector-curvature="0"
     d="m 17.1059,23.7886 -0.0012,0 c -0.312992,-0.0059 -0.870472,-1.59921 -1.45039,-1.5815 -0.698031,0.02126 -0.629528,1.66063 -1.15039,1.66063 -0.635433,0.0024 -0.995669,-1.58031 -2.25354,-1.38661 -0.827953,0.126378 -0.451181,1.78937 -1.33937,1.98543 -0.229134,0.05787 -0.433465,-0.32126 -0.48189,-0.497244 l -0.5751971,-15.0898 1.5460601,-0.323622 5.70591,15.2327 z"
     class="fil0"
     id="path4073" /><path
     id="_364638424"
     class="fil0"
     d="m 17.1059,23.7886 -0.0012,0 c -0.312992,-0.0059 -0.870472,-1.59921 -1.45039,-1.5815 -0.698031,0.02126 -0.629528,1.66063 -1.15039,1.66063 -0.635433,0.0024 -0.995669,-1.58031 -2.25354,-1.38661 -0.827953,0.126378 -0.451181,1.78937 -1.33937,1.98543 -0.229134,0.05787 -0.433465,-0.32126 -0.48189,-0.497244 l -0.5751971,-15.0898 1.5460601,-0.323622 5.70591,15.2327 z"
     inkscape:connector-curvature="0"
     style="fill:url(#linearGradient4200);fill-opacity:1;fill-rule:evenodd" /><path
     id="_361574264"
     class="fil1"
     d="M 9.9378,11.2476 9.781894,6.90232 C 9.7629964,6.397989 10.335831,5.80389 10.576776,6.426336 l 1.64291,4.26024 c -0.255118,-0.0815 -0.432283,-0.06614 -0.666142,0.05787 -0.898819,0.480709 0.222047,0.0685 -1.61575,0.50315 z"
     inkscape:connector-curvature="0"
     style="fill:#ff6a73" /><path
     id="_361574096"
     class="fil2"
     d="m 10.9098,24.4665 3.51142,17.6516 3.66969,-0.220866 -3.58701,-18.0283 c -0.635433,0.0012 -0.994488,-1.58268 -2.25472,-1.3878 -0.827953,0.126378 -0.45,1.79055 -1.33937,1.98543 z"
     inkscape:connector-curvature="0"
     style="fill:#a31543" /><path
     id="_361573928"
     class="fil3"
     d="m 10.4291,23.9693 3.5126,17.6516 0.480709,0.498425 -3.51142,-17.6539 -0.0024,0.0024 C 10.679455,24.474925 10.50229,24.23751 10.429061,23.9694 z"
     inkscape:connector-curvature="0"
     style="fill:#87122f" /><path
     id="_361573688"
     class="fil4"
     d="m 18.0909,41.8972 2.4248,-0.972047 -3.41102,-17.1378 c -0.314173,-0.0047 -0.869291,-1.59803 -1.44921,-1.58031 -0.699213,0.02126 -0.630709,1.66063 -1.15157,1.66181 l 3.58701,18.0283 z"
     inkscape:connector-curvature="0"
     style="fill:#f4458a" /><path
     style="fill:#f7d9ce"
     inkscape:connector-curvature="0"
     d="M 29.9764,20.4933 25.13152,5.909 l -1.55787,0.248031 -0.178346,15.5315 c 0.389764,-0.579921 0.193701,-1.54961 0.602362,-1.55433 0.558661,-0.0071 0.721654,1.7126 1.16811,1.6063 0.705118,-0.168898 0.553937,-2.03858 1.39724,-2.12717 0.777165,-0.08268 1.61811,1.63346 2.00197,1.75157 0.620079,0.191339 0.32126,-1.57559 0.689764,-1.83425 0.327165,-0.230315 0.480709,0.641339 0.721654,0.962598 z"
     class="fil0"
     id="_361573544" /><path
     style="fill:none"
     inkscape:connector-curvature="0"
     d="m 28.565,21.365 c 0.620079,0.191339 0.32126,-1.57559 0.689764,-1.83425 0.327165,-0.230315 0.480709,0.641339 0.721654,0.962598"
     class="fil5"
     id="_361573448" /><path
     style="fill:none"
     inkscape:connector-curvature="0"
     d="m 25.1657,21.7406 c 0.705118,-0.168898 0.553937,-2.03858 1.39724,-2.12717 0.777165,-0.08268 1.61811,1.63346 2.00197,1.75157"
     class="fil5"
     id="_361573352" /><path
     style="fill:none"
     inkscape:connector-curvature="0"
     d="m 23.3953,21.6886 c 0.389764,-0.579921 0.193701,-1.54961 0.602362,-1.55433 0.558661,-0.0071 0.721654,1.7126 1.16811,1.6063"
     class="fil5"
     id="_361573256" /><path
     style="fill:#012e1a"
     inkscape:connector-curvature="0"
     d="m 26.0799,39.5421 1.82008,0.375591 -2.73425,-18.1772 c -0.446457,0.106299 -0.609449,-1.61339 -1.16811,-1.6063 -0.408661,0.0047 -0.212598,0.974409 -0.602362,1.55433 l 2.68465,17.8535 z"
     class="fil6"
     id="_361573088" /><path
     style="fill:#018651"
     inkscape:connector-curvature="0"
     d="m 27.9,39.9177 3.39921,-0.374409 -2.73425,-18.1783 c -0.383858,-0.11811 -1.2248,-1.83425 -2.00197,-1.75157 -0.843307,0.08858 -0.692126,1.95827 -1.39724,2.12717 L 27.9,39.917791 z"
     class="fil7"
     id="_361572920" /><path
     style="fill:#438f85"
     inkscape:connector-curvature="0"
     d="m 31.2992,39.5433 1.41142,-0.871654 -2.73425,-18.1783 c -0.240945,-0.32126 -0.394488,-1.19291 -0.721654,-0.962598 -0.368504,0.258661 -0.06968,2.02559 -0.689764,1.83425 l 2.73425,18.1783 z"
     class="fil8"
     id="_361572752" /><path
     style="fill:#f7d9ce"
     inkscape:connector-curvature="0"
     d="m 23.902,25.1835 -4.41024,-14.7213 -1.56496,0.201969 -0.637795,15.5197 c 0.406299,-0.56811 0.238583,-1.54252 0.647244,-1.53661 0.558661,0.01063 0.670866,1.73386 1.12087,1.64055 0.709843,-0.147638 0.614173,-2.01969 1.45866,-2.08465 0.779528,-0.06024 1.56969,1.68071 1.95,1.81063 0.612992,0.209055 0.367323,-1.56614 0.742913,-1.81417 0.334252,-0.219685 0.462992,0.656693 0.693307,0.983858 z"
     class="fil0"
     id="_361572488" /><path
     style="fill:none"
     inkscape:connector-curvature="0"
     d="m 22.4657,26.0138 c 0.612992,0.209055 0.367323,-1.56614 0.742913,-1.81417 0.334252,-0.219685 0.462992,0.656693 0.693307,0.983858"
     class="fil5"
     id="_361572392" /><path
     style="fill:none"
     inkscape:connector-curvature="0"
     d="m 19.0571,26.2878 c 0.709843,-0.147638 0.614173,-2.01969 1.45866,-2.08465 0.779528,-0.06024 1.56969,1.68071 1.95,1.81063"
     class="fil5"
     id="_361572296" /><path
     style="fill:none"
     inkscape:connector-curvature="0"
     d="m 17.289,26.1839 c 0.406299,-0.56811 0.238583,-1.54252 0.647244,-1.53661 0.558661,0.01063 0.670866,1.73386 1.12087,1.64055"
     class="fil5"
     id="_361409600" /><path
     style="fill:#00001c"
     inkscape:connector-curvature="0"
     d="m 19.4268,43.9783 1.82362,0.561024 -2.19331,-18.2516 c -0.45,0.09331 -0.562205,-1.62992 -1.12087,-1.64055 -0.408661,-0.0059 -0.240945,0.968504 -0.647244,1.53661 l 2.1378,17.7945 z"
     class="fil10"
     id="_361408664" /><path
     style="fill:#30155c"
     inkscape:connector-curvature="0"
     d="m 21.2504,44.5394 3.40866,-0.274016 -2.19331,-18.2516 c -0.380315,-0.129921 -1.17047,-1.87087 -1.95,-1.81063 -0.844488,0.06496 -0.748819,1.93701 -1.45866,2.08465 l 2.19331,18.2516 z"
     class="fil11"
     id="_361408472" /><path
     style="fill:#512d73"
     inkscape:connector-curvature="0"
     d="m 24.6591,44.2654 1.40787,-1.06299 -2.16496,-18.0189 c -0.230315,-0.327165 -0.359055,-1.20354 -0.693307,-0.983858 -0.375591,0.248031 -0.129921,2.02323 -0.742913,1.81417 l 2.19331,18.2516 z"
     class="fil12"
     id="_361409792" /><path
     style="fill:none"
     inkscape:connector-curvature="0"
     d="m 36.4925,26.0079 c 0.43937,0.475984 1.0689,-1.20118 1.51772,-1.24016 0.398031,-0.03425 0.09331,0.797244 0.140551,1.19528"
     class="fil5"
     id="_361408400" /><path
     style="fill:none"
     inkscape:connector-curvature="0"
     d="m 33.365,24.626 c 0.693307,0.207874 1.50118,-1.48465 2.27598,-1.13858 0.713386,0.318898 0.57874,2.2252 0.851575,2.52047"
     class="fil5"
     id="_206155792" /><path
     style="fill:none"
     inkscape:connector-curvature="0"
     d="m 31.8591,23.6917 c 0.628346,-0.305906 0.944882,-1.24252 1.30157,-1.04173 0.485433,0.274016 -0.23622,1.8437 0.204331,1.97598"
     class="fil5"
     id="_206157064" /><path
     style="fill:#bc4c1e"
     inkscape:connector-curvature="0"
     d="m 30.6756,24.2185 -0.859843,17.3386 3.32244,1.0878 0.914173,-18.3591 c -0.616535,-0.152362 -0.918898,-1.76102 -1.50118,-1.80472 -0.839764,-0.06024 -0.964961,1.76457 -1.87559,1.7374 z"
     class="fil14"
     id="_206155936" /><path
     style="fill:#fca555"
     inkscape:connector-curvature="0"
     d="m 33.1382,42.6449 3.33543,-0.466535 0.85748,-17.1531 c -0.303543,-0.08032 -1.09016,-2.05039 -1.65945,-2.17677 -0.685039,-0.151181 -1.11378,1.56378 -1.61929,1.4374 l -0.914173,18.3591 z"
     class="fil15"
     id="_206155960" /><path
     style="fill:#f7d9ce"
     inkscape:connector-curvature="0"
     d="m 37.3323,25.0264 c -0.302362,-0.07441 -1.09016,-2.05157 -1.66063,-2.17795 -0.685039,-0.151181 -1.11378,1.56378 -1.61929,1.4374 -0.616535,-0.152362 -0.918898,-1.76102 -1.50118,-1.80472 -0.839764,-0.06024 -0.964961,1.76457 -1.87559,1.7374 l 3.25748,-15.4181 1.57677,0.063779 1.82244,16.1622 z"
     class="fil0"
     id="_206156296" /><path
     sodipodi:nodetypes="sssss"
     inkscape:connector-curvature="0"
     id="path3124"
     d="m 23.526455,30.677017 c 0.54279,3.956449 0.801392,7.183241 0.577603,7.207239 -0.223789,0.024 -0.845224,-3.163885 -1.388015,-7.120334 -0.54279,-3.95645 -0.451626,-5.131943 -0.227837,-5.15594 0.223789,-0.024 0.495458,1.112585 1.038249,5.069035 z"
     style="opacity:0.56637166;fill:url(#radialGradient4202);fill-opacity:1;stroke:none;filter:url(#filter3992)" /><path
     style="opacity:0.76106196;fill:url(#radialGradient4204);fill-opacity:1;stroke:none;filter:url(#filter4004)"
     d="m 15.712783,28.408528 c 0.746633,3.889544 1.231728,7.077658 1.083489,7.120849 -0.148239,0.04319 -0.873676,-3.074895 -1.62031,-6.964439 -0.746634,-3.889544 -0.798643,-5.066945 -0.650404,-5.110136 0.14824,-0.04319 0.440591,1.064182 1.187225,4.953726 z"
     id="path3964"
     inkscape:connector-curvature="0"
     sodipodi:nodetypes="sssss" /><path
     transform="matrix(0.69928097,-0.01487018,0.01487018,0.69928097,8.3779301,7.0317084)"
     style="opacity:0.56637166;fill:url(#radialGradient4206);fill-opacity:1;stroke:none;filter:url(#filter3992)"
     d="m 29.515954,26.010003 c 0.54279,3.956449 0.801392,7.183241 0.577603,7.207239 -0.223789,0.024 -0.845224,-3.163885 -1.388015,-7.120334 -0.54279,-3.95645 -0.451626,-5.131943 -0.227837,-5.15594 0.223789,-0.024 0.495458,1.112585 1.038249,5.069035 z"
     id="path4008"
     inkscape:connector-curvature="0"
     sodipodi:nodetypes="sssss" /><path
     sodipodi:nodetypes="sssss"
     inkscape:connector-curvature="0"
     id="path4012"
     d="m 29.515954,26.010003 c 0.54279,3.956449 0.801392,7.183241 0.577603,7.207239 -0.223789,0.024 -0.845224,-3.163885 -1.388015,-7.120334 -0.54279,-3.95645 -0.451626,-5.131943 -0.227837,-5.15594 0.223789,-0.024 0.495458,1.112585 1.038249,5.069035 z"
     style="opacity:0.98672569;fill:url(#radialGradient4208);fill-opacity:1;stroke:none;filter:url(#filter4032)"
     transform="matrix(0.96979318,0.16464025,-0.16464025,0.96979318,9.9846571,-0.59093091)" /><path
     transform="matrix(0.9998153,-0.01921912,0.01921912,0.9998153,-0.55633433,0.18769639)"
     sodipodi:nodetypes="sssss"
     inkscape:connector-curvature="0"
     id="path4036"
     d="m 12.164688,29.289261 c 0.746633,3.889544 1.231728,7.077658 1.083489,7.120849 -0.148239,0.04319 -0.873676,-3.074895 -1.62031,-6.964439 -0.746634,-3.889544 -0.798643,-5.066945 -0.650404,-5.110136 0.14824,-0.04319 0.440591,1.064182 1.187225,4.953726 z"
     style="opacity:0.32743363;fill:url(#radialGradient4210);fill-opacity:1;stroke:none;filter:url(#filter4004)" /><path
     transform="matrix(0.93467665,-0.02093549,0.0276328,1.2336822,0.51178624,-5.6448569)"
     style="opacity:0.33628319;fill:url(#radialGradient4212);fill-opacity:1;stroke:none;filter:url(#filter3992)"
     d="m 20.112483,30.970405 c 0.54279,3.956449 0.801392,7.183241 0.577603,7.207239 -0.223789,0.024 -0.845224,-3.163885 -1.388015,-7.120334 -0.54279,-3.95645 -0.451626,-5.131943 -0.227837,-5.15594 0.223789,-0.024 0.495458,1.112585 1.038249,5.069035 z"
     id="path4040"
     inkscape:connector-curvature="0"
     sodipodi:nodetypes="sssss" /><path
     sodipodi:nodetypes="sssss"
     inkscape:connector-curvature="0"
     id="path4044"
     d="m 20.112483,30.970405 c 0.54279,3.956449 0.801392,7.183241 0.577603,7.207239 -0.223789,0.024 -0.845224,-3.163885 -1.388015,-7.120334 -0.54279,-3.95645 -0.451626,-5.131943 -0.227837,-5.15594 0.223789,-0.024 0.495458,1.112585 1.038249,5.069035 z"
     style="opacity:0.33628319;fill:url(#radialGradient4214);fill-opacity:1;stroke:none;filter:url(#filter3992)"
     transform="matrix(0.93381044,-0.04535189,0.05986007,1.2325389,5.7923218,-9.7151322)" /><path
     transform="matrix(1.2758702,0.21660246,-0.21660246,1.2758702,5.6059828,-8.1465404)"
     style="opacity:0.94690265;fill:url(#radialGradient4216);fill-opacity:1;stroke:none;filter:url(#filter4032)"
     d="m 29.515954,26.010003 c 0.54279,3.956449 0.801392,7.183241 0.577603,7.207239 -0.223789,0.024 -0.845224,-3.163885 -1.388015,-7.120334 -0.54279,-3.95645 -0.451626,-5.131943 -0.227837,-5.15594 0.223789,-0.024 0.495458,1.112585 1.038249,5.069035 z"
     id="path4048"
     inkscape:connector-curvature="0"
     sodipodi:nodetypes="sssss" /><path
     sodipodi:nodetypes="sssss"
     inkscape:connector-curvature="0"
     id="path4056"
     d="m 19.3337,12.228894 c 0.54279,3.956449 0.801392,7.183241 0.577603,7.207239 -0.223789,0.024 -0.845224,-3.163885 -1.388015,-7.120334 -0.54279,-3.9564497 -0.451626,-5.1319427 -0.227837,-5.1559397 0.223789,-0.024 0.495458,1.112585 1.038249,5.0690347 z"
     style="opacity:0.97787613;fill:url(#radialGradient4218);fill-opacity:1;stroke:none;filter:url(#filter3992)"
     transform="matrix(1.1820531,0.00406745,-0.00871526,0.43032577,-11.239604,3.1624694)" /><path
     id="path4093"
     class="fil0"
     d="m 23.902,25.1835 -4.41024,-14.7213 -1.56496,0.201969 -0.637795,15.5197 c 0.406299,-0.56811 0.238583,-1.54252 0.647244,-1.53661 0.558661,0.01063 0.670866,1.73386 1.12087,1.64055 0.709843,-0.147638 0.614173,-2.01969 1.45866,-2.08465 0.779528,-0.06024 1.56969,1.68071 1.95,1.81063 0.612992,0.209055 0.367323,-1.56614 0.742913,-1.81417 0.334252,-0.219685 0.462992,0.656693 0.693307,0.983858 z"
     inkscape:connector-curvature="0"
     style="fill:url(#linearGradient4220);fill-opacity:1" /><path
     style="fill:#b25fd1"
     inkscape:connector-curvature="0"
     d="m 18.4642,13.3795 c -0.524409,0.249213 -0.522047,0.827953 -0.685039,0.853937 l 0.226772,-5.54409 c 0.02008,-0.505512 0.636614,-1.05709 0.829134,-0.413386 l 1.3122,4.37362 C 19.898054,12.548006 19.644117,12.24092 19.40081,12.3484 c -0.27874,0.122835 -0.194882,0.608268 -0.41811,0.814961 -0.152362,0.140551 -0.33189,0.12874 -0.518504,0.216142 z"
     class="fil13"
     id="_361409672" /><path
     transform="matrix(1.1803175,0.06416118,-0.03058299,0.42932611,-2.6657983,3.6276347)"
     style="opacity:0.97787613;fill:url(#radialGradient4222);fill-opacity:1;stroke:none;filter:url(#filter3992)"
     d="m 19.3337,12.228894 c 0.54279,3.956449 0.801392,7.183241 0.577603,7.207239 -0.223789,0.024 -0.845224,-3.163885 -1.388015,-7.120334 -0.54279,-3.9564497 -0.451626,-5.1319427 -0.227837,-5.1559397 0.223789,-0.024 0.495458,1.112585 1.038249,5.0690347 z"
     id="path4052"
     inkscape:connector-curvature="0"
     sodipodi:nodetypes="sssss" /><path
     id="path4109"
     class="fil0"
     d="M 29.9764,20.4933 25.13152,5.909 l -1.55787,0.248031 -0.178346,15.5315 c 0.389764,-0.579921 0.193701,-1.54961 0.602362,-1.55433 0.558661,-0.0071 0.721654,1.7126 1.16811,1.6063 0.705118,-0.168898 0.553937,-2.03858 1.39724,-2.12717 0.777165,-0.08268 1.61811,1.63346 2.00197,1.75157 0.620079,0.191339 0.32126,-1.57559 0.689764,-1.83425 0.327165,-0.230315 0.480709,0.641339 0.721654,0.962598 z"
     inkscape:connector-curvature="0"
     style="fill:url(#linearGradient4224);fill-opacity:1" /><path
     style="fill:#5bd3d4"
     inkscape:connector-curvature="0"
     d="m 23.5441,8.77795 0.04961,-4.59803 c 0.0059,-0.504331 0.605906,-1.07244 0.817323,-0.438189 l 1.44094,4.33346 c -0.251575,-0.093307 -0.514961,-0.393307 -0.755906,-0.27874 -0.902362,0.431102 -0.09685,0.666142 -1.55197,0.981496 z"
     class="fil9"
     id="_361572656" /><path
     sodipodi:nodetypes="sssss"
     inkscape:connector-curvature="0"
     id="path4060"
     d="m 19.3337,12.228894 c 0.54279,3.956449 0.801392,7.183241 0.577603,7.207239 -0.223789,0.024 -0.845224,-3.163885 -1.388015,-7.120334 -0.54279,-3.9564497 -0.451626,-5.1319427 -0.227837,-5.1559397 0.223789,-0.024 0.495458,1.112585 1.038249,5.0690347 z"
     style="opacity:0.97787613;fill:url(#radialGradient4226);fill-opacity:1;stroke:none;filter:url(#filter3992)"
     transform="matrix(1.1803175,0.06416118,-0.03058299,0.42932611,2.95631,-0.88425155)" /><path
     id="path4125"
     class="fil0"
     d="m 37.3323,25.0264 c -0.302362,-0.07441 -1.09016,-2.05157 -1.66063,-2.17795 -0.685039,-0.151181 -1.11378,1.56378 -1.61929,1.4374 -0.616535,-0.152362 -0.918898,-1.76102 -1.50118,-1.80472 -0.839764,-0.06024 -0.964961,1.76457 -1.87559,1.7374 l 3.25748,-15.4181 1.57677,0.063779 1.82244,16.1622 z"
     inkscape:connector-curvature="0"
     style="fill:url(#linearGradient4228);fill-opacity:1" /><path
     style="fill:#f6cd4d"
     inkscape:connector-curvature="0"
     d="m 34.0051,11.5665 c -0.558661,0.155906 -0.478346,-0.09685 -0.643701,-0.09921 l 0.981496,-4.6015696 c 0.105118,-0.494882 0.805512,-0.933071 0.888189,-0.26811 L 35.786202,11.1295 c -0.227953,-0.140551 -0.402756,-0.17126 -0.660236,-0.106299 -0.295276,0.07323 -0.318898,0.252756 -0.574016,0.416929 -0.172441,0.113386 -0.349606,0.07087 -0.54685,0.126378 z"
     class="fil16"
     id="_206158000" /><path
     transform="matrix(1.5099933,0.28313487,-0.14486792,0.4160927,8.5540663,-1.8102132)"
     style="fill:url(#radialGradient4230);fill-opacity:1;stroke:none;filter:url(#filter3992)"
     d="m 19.3337,12.228894 c 0.54279,3.956449 0.801392,7.183241 0.577603,7.207239 -0.223789,0.024 -0.845224,-3.163885 -1.388015,-7.120334 -0.54279,-3.9564497 -0.451626,-5.1319427 -0.227837,-5.1559397 0.223789,-0.024 0.495458,1.112585 1.038249,5.0690347 z"
     id="path4064"
     inkscape:connector-curvature="0"
     sodipodi:nodetypes="sssss" /></g></svg>